<?xml version="1.0" standalone="no"?>
<!DOCTYPE svg PUBLIC "-//W3C//DTD SVG 20010904//EN"
 "http://www.w3.org/TR/2001/REC-SVG-20010904/DTD/svg10.dtd">
<svg version="1.0" xmlns="http://www.w3.org/2000/svg"
 width="264.000000pt" height="263.000000pt" viewBox="0 0 264.000000 263.000000"
 preserveAspectRatio="xMidYMid meet">

<g transform="translate(0.000000,263.000000) scale(0.100000,-0.100000)"
fill="#000000" stroke="none">
<path d="M1130 2623 c-288 -47 -516 -161 -724 -362 -203 -198 -335 -453 -382
-739 -20 -118 -14 -371 11 -472 65 -270 181 -479 364 -660 192 -191 404 -306
664 -362 134 -28 370 -31 500 -5 160 32 353 113 489 204 458 310 678 878 543
1407 -108 426 -406 765 -805 915 -165 62 -278 81 -472 80 -89 -1 -174 -4 -188
-6z m562 -776 c232 -84 372 -279 372 -517 -1 -134 -22 -204 -100 -337 l-19
-32 55 -56 54 -55 -59 -60 c-33 -33 -63 -60 -67 -60 -4 0 -30 25 -59 55 -28
30 -56 55 -62 55 -6 0 -33 -11 -61 -24 -113 -52 -284 -66 -401 -32 -242 71
-404 288 -405 542 0 80 32 202 72 273 47 82 141 172 223 213 61 31 90 40 180
62 50 12 213 -3 277 -27z m-907 -527 l0 -535 -102 -3 -103 -3 0 541 0 541 103
-3 102 -3 0 -535z"/>
<path d="M1407 1676 c-103 -28 -200 -125 -233 -232 -21 -68 -20 -181 2 -246
33 -100 90 -167 184 -214 47 -24 67 -28 140 -28 60 -1 97 5 124 17 l40 18 -75
75 -74 76 64 59 65 60 74 -78 75 -78 26 55 c22 48 25 69 26 160 0 93 -3 111
-26 160 -77 164 -241 242 -412 196z"/>
<path d="M2572 225 c-1 -44 2 -85 6 -92 4 -7 6 20 4 60 -5 108 -9 122 -10 32z"/>
</g>
</svg>
